<?xml version="1.0" encoding="UTF-8"?>
<svg version="1.1" xmlns="http://www.w3.org/2000/svg" width="500" height="189">
<path d="M0 0 C165 0 330 0 500 0 C500 62.37 500 124.74 500 189 C335 189 170 189 0 189 C0 126.63 0 64.26 0 0 Z " fill="#FEFEFE" transform="translate(0,0)"/>
<path d="M0 0 C3.75385642 0.01146622 7.5074289 0.00476234 11.26127529 -0.00714493 C14.19464711 -0.0144199 17.12795303 -0.01205117 20.06132698 -0.00688934 C21.44498798 -0.0055722 22.8286553 -0.00713114 24.21230888 -0.01184845 C37.30753544 -0.04676781 48.40959723 1.15617491 59.7980957 7.88574219 C69.58411996 18.21543446 69.35672385 32.42714632 69.3137207 45.76855469 C69.3150723 47.26292992 69.31701691 48.75730472 69.31951904 50.25167847 C69.32245256 53.37323217 69.31823384 56.49467073 69.30883789 59.61621094 C69.29750421 63.56933961 69.30397536 67.52219475 69.31598282 71.47531319 C69.32330096 74.56073975 69.32086756 77.64610434 69.31572723 80.73153305 C69.31441492 82.18642079 69.31595106 83.6413146 69.32068634 85.09619522 C69.40342695 117.68046047 69.40342695 117.68046047 61.32543945 127.31542969 C56.76963406 131.68103247 52.12185755 133.77655226 46.0480957 135.26074219 C45.49045029 135.43354706 44.93280487 135.60635193 44.35826111 135.78439331 C41.21454835 136.43261704 38.2173705 136.38812024 35.00732422 136.39013672 C33.95512444 136.3927652 33.95512444 136.3927652 32.88166809 136.39544678 C30.56342081 136.39984519 28.24525002 136.3969315 25.92700195 136.39355469 C24.30476365 136.39422898 22.68252544 136.39520006 21.06028748 136.39645386 C17.65492799 136.39792868 14.24959472 136.3957857 10.84423828 136.39111328 C6.51405745 136.38545701 2.18393918 136.38867011 -2.14623928 136.39468575 C-5.50175938 136.39833229 -8.85726514 136.39713346 -12.21278572 136.39455795 C-13.806916 136.39389781 -15.40104764 136.39468462 -16.99517632 136.39703751 C-49.34200616 136.43425898 -49.34200616 136.43425898 -59.4519043 127.07324219 C-68.24188364 116.45201715 -67.25779194 99.85415005 -67.2175293 86.90917969 C-67.21888069 85.35844868 -67.22082515 83.8077181 -67.22332764 82.25698853 C-67.22625486 79.02805494 -67.22205828 75.79923298 -67.21264648 72.5703125 C-67.2012341 68.4574721 -67.207838 64.34489233 -67.21979141 60.23206139 C-67.22705898 57.03707964 -67.22470006 53.84215852 -67.21953583 50.64717484 C-67.21821384 49.13150628 -67.2197954 47.61583198 -67.22449493 46.10017014 C-67.29303091 17.80403336 -67.29303091 17.80403336 -58.5534668 8.60449219 C-43.70842791 -3.85085751 -18.29158628 -0.05637226 0 0 Z " fill="#017AFF" transform="translate(89.951904296875,20.7392578125)"/>
<path d="M0 0 C42.05263158 0 42.05263158 0 49.9375 6.375 C56.44393614 14.65591872 57.87320615 20.54578187 57 31 C55.13367972 37.95812888 51.48401583 42.58798904 45.5625 46.6875 C38.99905762 50.04926317 33.35132349 50.25130697 26.125 50.125 C22.78375 50.08375 19.4425 50.0425 16 50 C16 59.57 16 69.14 16 79 C10.72 79 5.44 79 0 79 C0 52.93 0 26.86 0 0 Z " fill="#070707" transform="translate(186,49)"/>
<path d="M0 0 C2.46658793 2.00067688 4.66463789 4.03358169 6.7578125 6.42578125 C7.4590625 7.20953125 8.1603125 7.99328125 8.8828125 8.80078125 C14.43625723 16.57560388 14.91314998 23.98256829 13.7578125 33.42578125 C10.6432792 43.33980851 4.69643017 50.00356788 -4.3671875 54.86328125 C-11.52310199 57.68377078 -19.28067019 57.70278801 -26.5625 55.35546875 C-35.36775965 51.31696621 -40.98444759 46.08926193 -44.6796875 37.11328125 C-47.16546596 29.36665268 -47.39286142 21.36576797 -44.48046875 13.69140625 C-40.34625269 6.12722545 -33.79752496 -0.41393709 -25.5234375 -3.140625 C-16.94708209 -4.77071995 -7.40870933 -5.00017455 0 0 Z " fill="#FBFDFF" transform="translate(107.2421875,70.57421875)"/>
<path d="M0 0 C4.95 0 9.9 0 15 0 C18.80975714 9.58808179 22.50006113 19.20893305 25.9375 28.9375 C26.39684937 30.22382324 26.39684937 30.22382324 26.86547852 31.53613281 C27.14576904 32.33760742 27.42605957 33.13908203 27.71484375 33.96484375 C27.96355225 34.6724585 28.21226074 35.38007324 28.46850586 36.10913086 C29 38 29 38 29 41 C29.66 41 30.32 41 31 41 C31.21527344 39.845 31.43054688 38.69 31.65234375 37.5 C33.12829149 30.86278656 35.49660052 24.51719706 37.7956543 18.13134766 C38.57001608 15.97911003 39.33537691 13.82382147 40.09960938 11.66796875 C43.85461045 1.14538955 43.85461045 1.14538955 45 0 C47.5327765 -0.07320163 50.03103918 -0.09227569 52.5625 -0.0625 C54.53271118 -0.0459436 54.53271118 -0.0459436 56.54272461 -0.02905273 C57.68362549 -0.01946533 58.82452637 -0.00987793 60 0 C55.52680538 12.96702237 50.89343296 25.86170133 46.02050781 38.68408203 C44.99347461 41.39220641 43.97721222 44.10422919 42.9609375 46.81640625 C31.39438066 77.44355121 31.39438066 77.44355121 23 82 C18.33920435 83.9175845 14.33464935 84.26998865 9.3125 84.25 C8.00925781 84.25515625 6.70601563 84.2603125 5.36328125 84.265625 C2 84 2 84 -1 82 C-0.0625 73.96428571 -0.0625 73.96428571 1 70 C2.32064453 70.01740234 2.32064453 70.01740234 3.66796875 70.03515625 C4.82941406 70.04417969 5.99085938 70.05320312 7.1875 70.0625 C8.91033203 70.07990234 8.91033203 70.07990234 10.66796875 70.09765625 C13.62109911 70.01110495 16.17152805 69.84186824 19 69 C20.35336433 66.7004039 20.35336433 66.7004039 21 64 C21.21978012 63.40087296 21.43956024 62.80174591 21.66600037 62.1844635 C22.13462126 59.1195343 21.22944308 57.23450862 20.09399414 54.36108398 C19.65346207 53.22988632 19.21292999 52.09868866 18.75904846 50.93321228 C18.02947182 49.10808861 18.02947182 49.10808861 17.28515625 47.24609375 C16.78937075 45.98147843 16.29471169 44.71642095 15.8011322 43.45094299 C14.50024486 40.12260096 13.18703168 36.79927386 11.87030029 33.47717285 C9.76343785 28.15740487 7.67246013 22.83141801 5.58694267 17.50325203 C4.85619622 15.64283575 4.11808866 13.78531629 3.37989807 11.92784119 C2.93621384 10.79979568 2.4925296 9.67175018 2.03540039 8.50952148 C1.64155655 7.51564926 1.24771271 6.52177704 0.8419342 5.49778748 C0 3 0 3 0 0 Z " fill="#040404" transform="translate(414,69)"/>
<path d="M0 0 C5.28 0 10.56 0 16 0 C19.3 5.94 22.6 11.88 26 18 C28.39418616 15.60581384 29.55812377 14.2737626 31.04296875 11.42578125 C31.39423828 10.75869141 31.74550781 10.09160156 32.10742188 9.40429688 C32.46384766 8.71400391 32.82027344 8.02371094 33.1875 7.3125 C33.73954102 6.2596582 33.73954102 6.2596582 34.30273438 5.18554688 C35.2067894 3.45962365 36.10406601 1.73015281 37 0 C41.95 0 46.9 0 52 0 C50.59178236 4.22465293 49.54408264 7.08160662 47.36328125 10.75 C46.62174805 12.03390625 46.62174805 12.03390625 45.86523438 13.34375 C44.82708102 15.11971046 43.78013049 16.89055662 42.72460938 18.65625 C42.23412109 19.5121875 41.74363281 20.368125 41.23828125 21.25 C40.78493408 22.01828125 40.33158691 22.7865625 39.86450195 23.578125 C38.36275801 27.78521336 39.54704097 30.9669656 41.29101562 34.94433594 C42.09055664 36.44915527 42.09055664 36.44915527 42.90625 37.984375 C43.48503906 39.08394531 44.06382812 40.18351562 44.66015625 41.31640625 C45.26730469 42.44949219 45.87445313 43.58257812 46.5 44.75 C47.41072266 46.47283203 47.41072266 46.47283203 48.33984375 48.23046875 C49.45905886 50.34675746 50.58175118 52.46121337 51.70898438 54.57324219 C52.48932968 56.04007885 53.25695914 57.51391828 54 59 C48.72 59 43.44 59 38 59 C36.16155559 55.71109457 34.3290654 52.41911532 32.5 49.125 C31.97535156 48.18785156 31.45070313 47.25070313 30.91015625 46.28515625 C30.16572266 44.94130859 30.16572266 44.94130859 29.40625 43.5703125 C28.94541016 42.74289551 28.48457031 41.91547852 28.00976562 41.06298828 C27 39 27 39 27 37 C26.34 37 25.68 37 25 37 C24.63261719 38.22589844 24.63261719 38.22589844 24.2578125 39.4765625 C22.77452388 43.63161324 20.88199051 47.45321289 18.875 51.375 C18.50246094 52.11105469 18.12992187 52.84710938 17.74609375 53.60546875 C16.8343878 55.40550358 15.91770068 57.20301402 15 59 C9.72 59 4.44 59 -1 59 C0.18476205 56.60278017 1.37272195 54.20722976 2.5625 51.8125 C2.91948975 51.0901416 3.27647949 50.3677832 3.64428711 49.62353516 C5.390384 46.11591991 7.1677148 42.64891639 9.125 39.25390625 C9.764375 38.13886719 10.40375 37.02382812 11.0625 35.875 C11.65160156 34.88242188 12.24070312 33.88984375 12.84765625 32.8671875 C14.273822 29.31869373 13.88046144 27.69219345 13 24 C11.72014444 21.17569901 11.72014444 21.17569901 10.05859375 18.41796875 C9.47529297 17.40412109 8.89199219 16.39027344 8.29101562 15.34570312 C7.67935547 14.30349609 7.06769531 13.26128906 6.4375 12.1875 C5.22625966 10.09858603 4.01653567 8.00879181 2.80859375 5.91796875 C2.27032959 4.99781982 1.73206543 4.0776709 1.17749023 3.12963867 C0 1 0 1 0 0 Z " fill="#040404" transform="translate(282,69)"/>
<path d="M0 0 C1.2684375 -0.01675781 2.536875 -0.03351562 3.84375 -0.05078125 C7.72150275 0.33450829 10.16044186 1.35927078 13.5 3.3125 C13.19078116 4.77153258 12.87751201 6.22970722 12.5625 7.6875 C12.38847656 8.49960937 12.21445312 9.31171875 12.03515625 10.1484375 C11.5 12.3125 11.5 12.3125 10.5 14.3125 C9.860625 14.1475 9.22125 13.9825 8.5625 13.8125 C5.94980739 13.38593794 3.51430731 13.14861117 0.875 13.0625 C0.11960937 13.03671875 -0.63578125 13.0109375 -1.4140625 12.984375 C-3.56393791 13.16738186 -3.56393791 13.16738186 -5.26171875 14.53515625 C-6.86402129 16.83499113 -6.80815658 18.22489857 -6.6875 21 C-6.625625 22.423125 -6.56375 23.84625 -6.5 25.3125 C-0.89 25.3125 4.72 25.3125 10.5 25.3125 C10.5 28.9425 10.5 32.5725 10.5 36.3125 C4.89 36.3125 -0.72 36.3125 -6.5 36.3125 C-6.5 52.1525 -6.5 67.9925 -6.5 84.3125 C-11.45 84.3125 -16.4 84.3125 -21.5 84.3125 C-21.5 68.8025 -21.5 53.2925 -21.5 37.3125 C-24.14 37.3125 -26.78 37.3125 -29.5 37.3125 C-29.5 33.3525 -29.5 29.3925 -29.5 25.3125 C-26.86 25.3125 -24.22 25.3125 -21.5 25.3125 C-21.83 24.3225 -22.16 23.3325 -22.5 22.3125 C-23.06384129 16.61987162 -22.80719906 12.16305862 -19.5 7.3125 C-13.51331119 1.45884872 -8.25459233 0.02516644 0 0 Z " fill="#030303" transform="translate(400.5,43.6875)"/>
<path d="M0 0 C4.95 0 9.9 0 15 0 C15 19.47 15 38.94 15 59 C10.05 59 5.1 59 0 59 C0 39.53 0 20.06 0 0 Z " fill="#050505" transform="translate(345,69)"/>
<path d="M0 0 C4.95 0 9.9 0 15 0 C15 19.47 15 38.94 15 59 C10.05 59 5.1 59 0 59 C0 39.53 0 20.06 0 0 Z " fill="#050505" transform="translate(256,69)"/>
<path d="M0 0 C3.51520834 2.3707219 5.79390381 5.02530762 7.6875 8.8125 C8.22468762 13.70883308 8.21168708 17.6802559 6.125 22.1875 C2.24406963 26.36696347 -1.49580728 28.97432019 -7.3125 29.3125 C-11.68370327 29.04988895 -14.98862229 27.65672953 -18.3125 24.8125 C-21.86578248 20.76657953 -23.07376625 16.43574953 -22.8359375 11.09375 C-21.87495599 6.9055918 -19.38024533 3.74655918 -16.3125 0.8125 C-11.18109127 -2.38683986 -5.5384276 -1.98547405 0 0 Z " fill="#057CFF" transform="translate(98.3125,83.1875)"/>
<path d="M0 0 C4.5478125 -0.12375 4.5478125 -0.12375 9.1875 -0.25 C10.60712036 -0.30462402 10.60712036 -0.30462402 12.05541992 -0.36035156 C16.21574001 -0.41511005 18.4337676 -0.35090458 22.05078125 1.890625 C25.80209708 5.95016518 25.32747764 9.73060856 25.2890625 15.0703125 C24.91937945 18.81710017 23.89382205 20.60226173 21 23 C18.23434618 23.92188461 16.61716298 24.11785222 13.76953125 24.09765625 C13.04612549 24.09515869 12.32271973 24.09266113 11.57739258 24.09008789 C10.66497803 24.08098389 9.75256348 24.07187988 8.8125 24.0625 C5.904375 24.041875 2.99625 24.02125 0 24 C0 16.08 0 8.16 0 0 Z " fill="#FDFDFD" transform="translate(202,62)"/>
<path d="M0 0 C3.58552881 1.63687185 4.79315055 2.68972583 7 6 C7.71207438 10.88516144 7.72852643 14.8100735 5.125 19.0625 C1.4010035 22.45790857 -1.62271642 22.38765771 -6.515625 22.359375 C-9 22 -9 22 -12.0625 19.625 C-14.74781439 15.98683212 -15.39279906 13.69292064 -15.359375 9.10546875 C-14.72418186 5.38406547 -12.66020984 3.59687151 -10 1 C-6.80876226 -0.59561887 -3.47254909 -0.3799142 0 0 Z " fill="#FAFCFF" transform="translate(129,44)"/>
<path d="M0 0 C2.75329021 1.79562405 4.52627461 3.05254922 6 6 C6.52457223 9.93429172 6.30690703 11.54458957 4.0625 14.875 C0.4562682 17.37728329 -1.60892134 17.68948261 -5.90625 17.41015625 C-8 17 -8 17 -10.5625 15.5 C-12.57641782 11.99753422 -12.87555677 8.87856287 -12 5 C-8.62505893 0.09099481 -5.84787119 -0.93983644 0 0 Z " fill="#070707" transform="translate(356,44)"/>
<path d="M0 0 C2.75329021 1.79562405 4.52627461 3.05254922 6 6 C6.52457223 9.93429172 6.30690703 11.54458957 4.0625 14.875 C0.4562682 17.37728329 -1.60892134 17.68948261 -5.90625 17.41015625 C-8 17 -8 17 -10.5625 15.5 C-12.57641782 11.99753422 -12.87555677 8.87856287 -12 5 C-8.62505893 0.09099481 -5.84787119 -0.93983644 0 0 Z " fill="#070707" transform="translate(267,44)"/>
</svg>
